<svg width="20" height="20" viewBox="0 0 20 20" fill="none" xmlns="http://www.w3.org/2000/svg">
<path d="M7.63332 9.05817C7.54999 9.04984 7.44999 9.04984 7.35832 9.05817C5.37499 8.9915 3.79999 7.3665 3.79999 5.3665C3.79999 3.32484 5.44999 1.6665 7.49999 1.6665C9.54165 1.6665 11.2 3.32484 11.2 5.3665C11.1917 7.3665 9.61665 8.9915 7.63332 9.05817Z" stroke="#0072EA" stroke-width="1.5" stroke-linecap="round" stroke-linejoin="round"/>
<path d="M13.675 3.3335C15.2916 3.3335 16.5917 4.64183 16.5917 6.25016C16.5917 7.82516 15.3417 9.1085 13.7833 9.16683C13.7167 9.1585 13.6417 9.1585 13.5667 9.16683" stroke="#0072EA" stroke-width="1.5" stroke-linecap="round" stroke-linejoin="round"/>
<path d="M3.46666 12.1335C1.45 13.4835 1.45 15.6835 3.46666 17.0252C5.75833 18.5585 9.51666 18.5585 11.8083 17.0252C13.825 15.6752 13.825 13.4752 11.8083 12.1335C9.525 10.6085 5.76666 10.6085 3.46666 12.1335Z" stroke="#0072EA" stroke-width="1.5" stroke-linecap="round" stroke-linejoin="round"/>
<path d="M15.2833 16.6665C15.8833 16.5415 16.45 16.2998 16.9167 15.9415C18.2167 14.9665 18.2167 13.3582 16.9167 12.3832C16.4583 12.0332 15.9 11.7998 15.3083 11.6665" stroke="#0072EA" stroke-width="1.5" stroke-linecap="round" stroke-linejoin="round"/>
</svg>
